<?xml version="1.0" encoding="UTF-8" standalone="no"?><!DOCTYPE svg PUBLIC "-//W3C//DTD SVG 1.1//EN" "http://www.w3.org/Graphics/SVG/1.1/DTD/svg11.dtd"><svg width="100%" height="100%" viewBox="0 0 330 86" version="1.1" xmlns="http://www.w3.org/2000/svg" xmlns:xlink="http://www.w3.org/1999/xlink" xml:space="preserve" style="fill-rule:evenodd;clip-rule:evenodd;stroke-linejoin:round;stroke-miterlimit:1.41421;"><rect id="Logo---No-BG--Cropped-" x="0" y="0" width="330" height="86" style="fill:none;"/><clipPath id="_clip1"><rect x="0" y="0" width="330" height="86"/></clipPath><g clip-path="url(#_clip1)"><g id="Logo"><path id="Flask" d="M0,66.361l0,4.149c0.276,2.28 1.009,4.516 2.2,6.59c3.1,5.5 8.8,8.7 15.1,8.7l41.3,0c6.3,0 11.9,-3.3 15.1,-8.7c1.389,-2.465 2.156,-5.131 2.3,-7.808l0,-1.858c-0.144,-2.673 -0.911,-5.314 -2.3,-7.734l-0.1,-0.3l-0.2,-0.3l-17.8,-24.1l0,-17.1c2.4,-1.8 4,-4.7 4,-7.9c0,-5.4 -4.4,-9.8 -9.8,-9.8l-23.6,0c-5.4,0 -9.8,4.4 -9.8,9.8c0,3.2 1.6,6.1 4,7.9l0,17.1l-17.8,24.1l-0.2,0.3l-0.2,0.3c-1.191,2.112 -1.924,4.372 -2.2,6.661l0,0Zm58.6,13.439l-41.2,0c-8.8,0 -14.3,-9.5 -9.9,-17.1l19,-25.8l0,-23.1l-0.2,0c-2.1,0 -3.8,-1.7 -3.8,-3.8c0,-2.1 1.7,-3.8 3.8,-3.8l23.5,0c2.1,0 3.8,1.7 3.8,3.8c0,2.1 -1.7,3.8 -3.8,3.8l-0.2,0l0,23.1l19,25.8c4.3,7.6 -1.2,17.1 -10,17.1Zm-2.7,-24.1c-3.7,2.7 -10.9,5.9 -18.1,-2.3c-4.4,-5.1 -8.8,-5.8 -12.4,-5l-13,17.6c-1.2,2.3 -0.3,4.4 0.1,5.2c0.5,0.8 1.9,2.7 4.7,2.7l41.3,0c2.8,0 4.2,-1.9 4.7,-2.7c0.5,-0.8 1.3,-2.8 0.1,-5.2l-7.4,-10.3Zm-13.7,-7.3c2.32,0 4.2,-1.88 4.2,-4.2c0,-2.32 -1.88,-4.2 -4.2,-4.2c-2.32,0 -4.2,1.88 -4.2,4.2c0,2.32 1.88,4.2 4.2,4.2Zm-6.5,-14c2.043,0 3.7,-1.657 3.7,-3.7c0,-2.043 -1.657,-3.7 -3.7,-3.7c-2.043,0 -3.7,1.657 -3.7,3.7c0,2.043 1.657,3.7 3.7,3.7Zm4.8,-13.4c1.381,0 2.5,-1.119 2.5,-2.5c0,-1.381 -1.119,-2.5 -2.5,-2.5c-1.381,0 -2.5,1.119 -2.5,2.5c0,1.381 1.119,2.5 2.5,2.5Z" style="fill:url(#_Linear2);"/><text id="ZUnit" x="93.928px" y="74.147px" style="font-family:'SourceSansPro-Black', 'Source Sans Pro', sans-serif;font-weight:900;font-size:95.924px;fill:#212733;">Z<tspan x="145px " y="74.147px ">U</tspan>ni<tspan x="293.032px " y="74.147px ">t</tspan></text></g></g><defs><linearGradient id="_Linear2" x1="0" y1="0" x2="1" y2="0" gradientUnits="userSpaceOnUse" gradientTransform="matrix(76,85.6,-85.6,76,-6.8201e-08,0.2)"><stop offset="0%" style="stop-color:#d463a7;stop-opacity:1"/><stop offset="100%" style="stop-color:#fb757c;stop-opacity:1"/></linearGradient></defs></svg>